<?xml version="1.0" standalone="no"?>
<!DOCTYPE svg PUBLIC "-//W3C//DTD SVG 20010904//EN"
 "http://www.w3.org/TR/2001/REC-SVG-20010904/DTD/svg10.dtd">
<svg version="1.0" xmlns="http://www.w3.org/2000/svg"
 width="220.000000pt" height="220.000000pt" viewBox="0 0 220.000000 220.000000"
 preserveAspectRatio="xMidYMid meet">
<metadata>
Created by potrace 1.14, written by Peter Selinger 2001-2017
</metadata>
<g transform="translate(0.000000,220.000000) scale(0.100000,-0.100000)"
fill="#000000" stroke="none">
<path d="M300 1085 l0 -875 75 0 75 0 0 40 0 40 670 0 670 0 0 -40 0 -40 75 0
75 0 0 875 0 875 -820 0 -820 0 0 -875z m1490 40 l0 -695 -670 0 -670 0 0 695
0 695 670 0 670 0 0 -695z"/>
<path d="M757 1713 c-4 -3 -7 -84 -7 -180 l0 -173 370 0 370 0 0 180 0 180
-363 0 c-200 0 -367 -3 -370 -7z m593 -173 l0 -70 -230 0 -230 0 0 70 0 70
230 0 230 0 0 -70z"/>
<path d="M670 1015 l0 -245 70 0 70 0 0 185 0 185 305 0 305 0 2 -182 3 -183
73 -3 72 -3 0 246 0 245 -450 0 -450 0 0 -245z"/>
<path d="M1046 999 c-40 -158 -103 -238 -240 -304 -50 -24 -120 -51 -156 -61
-36 -9 -68 -20 -73 -24 -9 -8 37 -123 51 -128 5 -1 57 12 115 31 206 67 315
152 386 300 37 77 80 231 68 244 -3 3 -34 7 -69 10 l-63 5 -19 -73z"/>
<path d="M1176 755 c-32 -49 -35 -56 -19 -62 110 -39 272 -117 374 -179 31
-19 61 -34 65 -34 5 0 18 15 30 33 11 17 28 44 38 59 l17 26 -66 38 c-73 40
-241 116 -320 144 -27 10 -57 21 -66 24 -11 5 -26 -8 -53 -49z"/>
</g>
</svg>
